HIERARCHY
ROOT hip
{
	OFFSET 0.000000 0.000000 0.000000 
	CHANNELS 6 Xposition Yposition Zposition Xrotation Zrotation Yrotation
	JOINT abdomen
	{
		OFFSET 0.000000 3.402643 0.000000 
		CHANNELS 3 Xrotation Zrotation Yrotation
		JOINT chest
		{
			OFFSET 0.000000 8.438565 -0.680529 
			CHANNELS 3 Xrotation Zrotation Yrotation
			JOINT neck
			{
				OFFSET 0.000000 10.207942 -0.272212 
				CHANNELS 3 Xrotation Zrotation Yrotation
				JOINT head
				{
					OFFSET 0.000000 3.130431 0.000000 
					CHANNELS 3 Xrotation Zrotation Yrotation
					End Site
					{
						OFFSET 0.000000 3.130435 0.000000 
					}
				}
			}
			JOINT lCollar
			{
				OFFSET 3.470700 6.669187 -0.816635 
				CHANNELS 3 Yrotation Zrotation Xrotation
				JOINT lShldr
				{
					OFFSET 3.198488 0.000000 0.000000 
					CHANNELS 3 Zrotation Yrotation Xrotation
					JOINT lForeArm
					{
						OFFSET 10.139888 0.000000 0.000000 
						CHANNELS 3 Yrotation Zrotation Xrotation
						JOINT lHand
						{
							OFFSET 8.370511 0.000000 0.000000 
							CHANNELS 3 Zrotation Yrotation Xrotation
							End Site
							{
								OFFSET 4.083176 0.000000 0.000000 
							}
						}
					}
				}
			}
			JOINT rCollar
			{
				OFFSET -3.470700 6.669187 -0.816635 
				CHANNELS 3 Yrotation Zrotation Xrotation
				JOINT rShldr
				{
					OFFSET -3.198488 0.000000 0.000000 
					CHANNELS 3 Zrotation Yrotation Xrotation
					JOINT rForeArm
					{
						OFFSET -10.139888 0.000000 0.000000 
						CHANNELS 3 Yrotation Zrotation Xrotation
						JOINT rHand
						{
							OFFSET -8.370511 0.000000 0.000000 
							CHANNELS 3 Zrotation Yrotation Xrotation
							End Site
							{
								OFFSET -4.083176 0.000000 0.000000 
							}
						}
					}
				}
			}
		}
	}
	JOINT lThigh
	{
		OFFSET 5.308129 -1.633274 1.361059 
		CHANNELS 3 Xrotation Zrotation Yrotation
		JOINT lShin
		{
			OFFSET -2.041588 -20.007561 0.000000 
			CHANNELS 3 Xrotation Zrotation Yrotation
			JOINT lFoot
			{
				OFFSET 0.000000 -19.190928 -1.224953 
				CHANNELS 3 Xrotation Yrotation Zrotation
				End Site
				{
					OFFSET 0.000000 -2.449906 4.627600 
				}
			}
		}
	}
	JOINT rThigh
	{
		OFFSET -5.308129 -1.633274 1.361059 
		CHANNELS 3 Xrotation Zrotation Yrotation
		JOINT rShin
		{
			OFFSET 2.041588 -20.007561 0.000000 
			CHANNELS 3 Xrotation Zrotation Yrotation
			JOINT rFoot
			{
				OFFSET 0.000000 -19.190928 -1.224953 
				CHANNELS 3 Xrotation Yrotation Zrotation
				End Site
				{
					OFFSET 0.000000 -2.449906 4.627600 
				}
			}
		}
	}
}
MOTION
Frames: 11
Frame Time: 0.033333
2.574926 44.302174 -1.803921 1.614260 1.650030 -55.782997 3.585165 -1.597901 -2.743578 -2.470186 -4.215086 -4.463746 0.786480 1.084368 16.077389 -2.344942 1.300500 25.940256 -7.117173 -0.736482 -1.291912 -68.737106 19.827682 21.393049 -27.169895 9.472536 -3.258662 -4.229603 12.179637 -70.814293 2.259889 -15.594097 12.180913 16.075380 3.146094 -60.413815 106.728065 17.347841 -9.959538 -12.806738 -5.910447 26.402431 -34.606289 9.314619 -16.835306 59.811829 -6.621348 -7.318096 -24.211832 43.980919 -9.570509 -33.496918 -23.171625 34.101688 52.695839 32.170658 18.806221 -28.398197 -9.515403 -2.743366 
2.244167 44.168030 -1.620748 1.614260 1.650030 -57.150414 3.770840 -1.844339 -2.543849 -1.980391 -4.665685 -5.029283 1.769104 1.412863 16.353735 -1.605209 1.779045 26.180824 -7.028324 0.352872 -1.232218 -71.809082 25.411572 17.143850 -31.438896 13.044783 0.653359 3.358310 11.459919 -69.391190 5.184804 -17.995304 13.801722 16.267994 -17.513992 -77.774261 107.162552 7.534788 -0.294887 -2.822285 0.986495 -0.326337 -34.144798 9.702576 -16.989077 60.484688 -6.597794 -7.428726 -25.102404 44.651543 -9.901193 -33.531158 -24.148373 34.711132 52.706261 33.386395 19.462784 -28.664337 -8.986259 -3.083716 
1.937020 44.059464 -1.450592 1.614260 1.650030 -58.357407 3.939895 -2.087147 -2.463937 -1.549842 -5.095746 -5.410905 2.796978 1.756486 16.597727 -0.831410 2.279626 26.508064 -6.897761 1.492195 -1.170884 -74.777672 30.935011 12.815028 -35.499355 16.695015 4.698950 10.364531 10.521791 -68.058449 7.374758 -20.526663 15.161766 21.202843 -33.435024 -91.304565 104.973351 -2.713064 9.602978 0.770125 7.578449 -22.976135 -33.707401 10.055501 -17.120886 61.054386 -6.575355 -7.518174 -25.892267 45.215061 -10.199215 -33.500473 -25.056662 35.236431 52.627888 34.482529 20.006096 -28.889683 -8.535104 -3.373754 
1.724327 44.025925 -1.332615 1.614260 1.650030 -59.029850 4.047602 -2.291709 -2.682590 -1.315304 -5.423947 -5.301668 3.808833 2.094754 16.733843 -0.069672 2.772406 27.003428 -6.682379 2.613267 -1.113063 -77.173424 35.618980 8.804016 -38.522633 20.096874 8.554716 15.110544 9.172480 -67.120407 7.521541 -23.062681 15.725877 33.130997 -39.020752 -96.343109 98.293327 -12.718482 18.710918 -7.998872 12.064120 -36.603992 -33.368469 10.283704 -17.188848 61.281525 -6.558563 -7.545179 -26.332367 45.455513 -10.385776 -33.315472 -25.677952 35.508080 52.352619 35.158504 20.225523 -28.998192 -8.342243 -3.523540 
1.712346 44.141941 -1.325544 1.614260 1.650030 -58.605099 4.024670 -2.406890 -3.468760 -1.484110 -5.529190 -4.236830 4.715710 2.397930 16.648500 0.613038 3.214060 27.787201 -6.316330 3.616880 -1.066340 -78.430702 38.233013 5.635689 -39.133205 22.798222 11.678750 15.072819 7.122660 -67.082130 3.644930 -25.419001 14.686200 42.048588 -36.469631 -94.257439 89.780556 -21.343159 25.004723 -25.931627 9.764730 -46.304436 -33.193665 10.262608 -17.148272 60.721706 -6.554977 -7.446183 -26.012243 45.062416 -10.355537 -32.836010 -25.646156 35.318336 51.744041 34.970737 19.858892 -28.907307 -8.731540 -3.455639 
1.971891 44.446663 -1.468904 1.614260 1.650030 -56.740124 3.830667 -2.402935 -4.932413 -2.165591 -5.340523 -1.915442 5.439804 2.640002 16.276680 1.158145 3.566697 28.737280 -5.754516 4.418897 -1.036933 -78.306183 37.912998 3.731621 -36.517914 24.393045 13.595023 9.245831 4.226758 -68.114899 -5.187318 -27.320808 11.633413 39.264221 -29.184492 -87.634346 83.242020 -27.662449 27.278055 -46.578709 -1.505902 -57.539177 -33.235401 9.919459 -16.973921 59.108215 -6.569516 -7.187377 -24.673727 43.840462 -10.048202 -32.003677 -24.729549 34.581738 50.755417 33.665451 18.779196 -28.581203 -9.936450 -3.138341 
2.396619 44.812603 -1.705807 1.614260 1.650030 -54.158955 3.565160 -2.352144 -6.457381 -3.006509 -5.027382 1.150504 5.975606 2.819126 15.785685 1.561503 3.827633 28.723173 -5.057563 5.026485 -1.023161 -77.941948 35.711655 2.972717 -32.659893 24.785639 14.309548 3.541105 1.010716 -68.853958 -15.043570 -28.190342 8.024989 33.591393 -17.590961 -77.908409 82.554985 -32.067482 28.597219 -59.650677 -11.086096 -67.201279 -33.501770 9.423681 -16.721167 57.089916 -6.593497 -6.876254 -22.829220 42.149445 -9.610137 -31.137718 -23.381350 33.740105 49.726902 31.891029 17.451565 -28.177532 -11.685248 -2.710324 
2.835896 45.070614 -1.955271 1.614260 1.650030 -51.852402 3.362720 -2.352330 -7.245960 -3.537980 -4.819300 4.245770 6.335680 2.939500 15.400900 1.832570 4.002990 26.362301 -4.312531 5.469633 -1.021371 -78.826416 33.160919 3.104723 -30.241365 23.957878 13.948848 5.599440 -1.831632 -67.550568 -20.776199 -27.374100 5.785110 38.219830 -1.370394 -66.226234 91.614296 -35.278324 33.096664 -53.898094 -5.102204 -70.041656 -33.989765 9.005243 -16.465530 55.544582 -6.614843 -6.655631 -21.183771 40.487938 -9.239381 -30.651793 -22.226019 33.367092 49.095406 30.521404 16.489172 -27.902311 -13.579913 -2.352862 
3.168076 45.083755 -2.150006 1.614260 1.650030 -50.460159 3.342812 -2.456096 -6.498373 -3.385448 -4.871501 6.695223 6.539575 3.007658 15.277321 1.986064 4.102287 20.247545 -3.606002 5.777750 -1.027939 -81.572838 31.455215 4.261903 -31.517773 22.260075 12.666308 19.188869 -3.728299 -63.069939 -18.818943 -24.017660 6.160522 57.569027 18.036888 -53.177719 108.042053 -37.534943 40.264675 -28.060593 18.943150 -60.540863 -34.740238 8.823614 -16.246429 55.201950 -6.628687 -6.636734 -20.320240 39.137520 -9.050146 -30.839628 -21.683516 33.891396 49.277817 30.196827 16.376369 -28.031017 -15.383731 -2.254699 
3.387475 44.843990 -2.277513 1.614260 1.650030 -49.217602 3.564480 -2.535210 -3.406540 -2.551650 -5.041980 7.984100 6.634770 3.039480 15.288400 2.057730 4.148650 8.873680 -3.022650 5.977930 -1.039370 -83.293732 30.438877 8.132593 -37.037430 21.516308 10.722779 32.586334 -4.594633 -56.733158 -11.930900 -16.462900 7.688260 60.977558 32.154583 -37.126190 104.369308 -37.156910 31.004814 -20.834156 18.042171 -32.098156 -35.969383 8.756278 -15.958852 56.199680 -6.659019 -6.804428 -20.332764 37.511829 -8.821358 -31.515295 -21.355816 35.161907 50.611050 30.622900 17.082239 -29.116962 -17.505207 -2.634457 
3.517078 44.375252 -2.338825 1.614260 1.650030 -47.010750 3.922450 -2.685490 2.285130 -1.372130 -5.008470 8.173250 6.671190 3.051660 15.283100 2.085150 4.166390 -8.051310 -2.627741 6.094282 -1.052741 -81.369637 29.309669 15.256162 -46.776955 22.538002 8.460404 34.213768 -4.503526 -48.828205 -4.619200 -5.961750 8.660410 31.946871 36.705078 -21.305696 65.365654 -31.410564 -2.316144 -54.631378 -29.903965 10.129077 -37.905136 8.639838 -15.520082 58.401539 -6.716349 -7.122318 -21.106539 34.754589 -8.328250 -32.284748 -20.880274 36.870621 53.366623 31.366005 18.527897 -31.563478 -20.618038 -3.532020 
